<?xml version="1.0" encoding="UTF-8" standalone="no"?><!DOCTYPE svg PUBLIC "-//W3C//DTD SVG 1.1//EN" "http://www.w3.org/Graphics/SVG/1.1/DTD/svg11.dtd"><svg width="100%" height="100%" viewBox="0 0 239 218" version="1.1" xmlns="http://www.w3.org/2000/svg" xmlns:xlink="http://www.w3.org/1999/xlink" xml:space="preserve" style="fill-rule:evenodd;clip-rule:evenodd;stroke-linejoin:round;stroke-miterlimit:1.41421;"><g id="Layer-1"><g><path d="M24.38,202.598c-1.132,-0.109 -2.184,-0.433 -3.154,-0.975l0.323,-0.646c0.862,0.215 1.699,0.321 2.507,0.321l2.346,0c3.452,0 6.417,-1.268 8.899,-3.809c2.479,-2.538 4.585,-5.892 6.308,-10.053c1.726,-4.162 3.104,-8.944 4.128,-14.349c1.023,-5.405 1.832,-10.97 2.426,-16.699c0.594,-5.73 0.998,-11.403 1.213,-17.027c0.217,-5.62 0.323,-10.754 0.323,-15.402c0,-5.188 -0.053,-9.486 -0.161,-12.89c-0.109,-3.407 -0.162,-5.271 -0.162,-5.596c-3.776,0.649 -6.364,0.976 -7.767,0.976c-0.968,0 -1.617,-0.165 -1.941,-0.489l-2.103,-0.487c-0.432,-0.215 -0.836,-0.43 -1.213,-0.645c-0.376,-0.221 -0.619,-0.489 -0.728,-0.811c-0.323,-0.327 -0.755,-0.679 -1.294,-1.056c-0.538,-0.377 -0.808,-0.836 -0.808,-1.381c0,-0.43 -0.162,-0.81 -0.486,-1.132l-0.811,-1.299c0.864,0.76 1.888,1.271 3.076,1.542c1.185,0.272 2.479,0.406 3.882,0.406c1.941,0 3.885,-0.19 5.823,-0.57c1.944,-0.375 3.452,-0.783 4.532,-1.213c0,-7.245 0.432,-14.296 1.294,-21.16c0.861,-6.865 2.345,-12.943 4.451,-18.243c2.102,-5.296 4.905,-9.538 8.411,-12.727c3.505,-3.189 7.9,-4.785 13.188,-4.785c0.753,0 1.481,0.109 2.181,0.324c0.702,0.218 1.43,0.327 2.186,0.327c0.324,0 0.647,-0.327 0.971,-0.975c0.323,-0.649 0.7,-1.378 1.132,-2.189c0.432,-0.81 0.942,-1.54 1.537,-2.188c0.594,-0.649 1.321,-0.973 2.183,-0.973c2.265,0 3.966,0.568 5.098,1.702c1.132,1.135 1.751,2.569 1.86,4.296l-1.294,5.514c0,0.218 -0.053,0.596 -0.162,1.135c-0.108,0.542 -0.217,1.165 -0.323,1.867c-0.109,0.701 -0.243,1.35 -0.404,1.945c-0.162,0.595 -0.246,0.998 -0.246,1.216c-0.429,1.406 -1.104,2.675 -2.022,3.809c-0.914,1.135 -1.913,2.298 -2.992,3.488c-0.432,0.755 -0.862,1.269 -1.294,1.54c-0.432,0.269 -0.89,0.512 -1.375,0.727c-0.485,0.218 -1.051,0.514 -1.698,0.894c-0.647,0.38 -1.35,1.054 -2.103,2.027c-0.541,1.187 -1.213,2.213 -2.022,3.08c-0.809,0.866 -1.484,1.73 -2.025,2.596c-0.323,0 -0.485,-0.436 -0.485,-1.297c0,-0.975 0.162,-2.244 0.485,-3.812c0.324,-1.568 0.675,-3.161 1.054,-4.782c0.377,-1.621 0.726,-3.083 1.052,-4.38c0.323,-1.296 0.482,-2.16 0.482,-2.593c0,-1.082 0.271,-2.407 0.809,-3.972c0.541,-1.568 0.812,-2.948 0.812,-4.136c0,-0.864 -0.218,-1.54 -0.647,-2.029c-0.433,-0.484 -1.294,-0.727 -2.591,-0.727c-1.941,0 -3.963,0.783 -6.066,2.351c-2.103,1.568 -3.801,3.488 -5.098,5.757c-1.185,2.051 -2.128,4.268 -2.83,6.646c-0.7,2.381 -1.266,4.863 -1.699,7.46c-0.538,3.457 -0.889,6.97 -1.051,10.539c-0.162,3.566 -0.243,7.133 -0.243,10.702c0,0.324 -0.056,0.704 -0.161,1.134c-0.109,0.434 -0.271,0.705 -0.486,0.811c0.215,0.864 0.352,1.758 0.405,2.675c0.055,0.919 0.189,2.188 0.404,3.809c2.482,-0.539 4.853,-1.107 7.12,-1.699c2.264,-0.595 4.582,-0.895 6.955,-0.895c2.591,0 4.961,0.434 7.12,1.297l-0.162,0.651c-0.647,0 -1.026,-0.083 -1.132,-0.243c-0.109,-0.165 -0.594,-0.246 -1.459,-0.246c-0.538,0 -1.023,0.109 -1.455,0.325c-0.43,0.215 -0.7,0.324 -0.809,0.324c-2.803,0.327 -5.475,1.053 -8.007,2.191c-2.535,1.135 -5.151,2.188 -7.847,3.158c0.214,1.191 0.323,2.653 0.323,4.38l0,5.838c0,3.136 -0.028,6.512 -0.081,10.134c-0.053,3.623 -0.081,6.999 -0.081,10.135c0,0.106 -0.028,0.243 -0.081,0.402c-0.053,0.165 -0.08,0.352 -0.08,0.567c0,0.436 0.161,0.652 0.485,0.652c0,0.215 -0.028,0.486 -0.081,0.81c-0.053,0.324 -0.081,0.755 -0.081,1.297c0.218,0.324 0.351,0.973 0.404,1.945c0.056,0.976 0.081,2.108 0.081,3.407c0,2.161 -0.109,4.455 -0.323,6.89c-0.215,2.431 -0.538,4.027 -0.971,4.782c0.324,0.327 0.486,0.595 0.486,0.81c-0.215,0.218 -0.352,0.542 -0.405,0.973c-0.053,0.433 -0.19,0.866 -0.404,1.299c-0.541,3.458 -1.322,7.323 -2.346,11.591c-1.026,4.273 -2.401,8.488 -4.127,12.649c-1.724,4.162 -3.882,7.971 -6.47,11.431c-2.591,3.458 -5.717,6.054 -9.384,7.781c-0.215,0.109 -0.513,0.19 -0.89,0.246c-0.376,0.05 -0.566,0.187 -0.566,0.403c-0.538,0.542 -1.726,1.137 -3.559,1.786c-1.835,0.645 -3.399,0.972 -4.693,0.972c-1.079,0 -2.184,-0.056 -3.316,-0.162" style="fill:#fff;fill-rule:nonzero;"/><path d="M143.295,111.995l-0.486,1.219c0.109,0.109 0.433,0.159 0.971,0.159c0.862,0 1.779,-0.271 2.75,-0.811c0.97,-0.539 1.835,-1.081 2.588,-1.621c1.188,-1.188 2.077,-2.378 2.671,-3.566c0.594,-1.188 0.89,-2.649 0.89,-4.38c0,-0.539 -0.271,-0.81 -0.809,-0.81c-0.862,0 -1.67,0.38 -2.426,1.135l-2.106,2.107c-0.323,0.221 -0.563,0.517 -0.728,0.894c-0.161,0.378 -0.351,0.677 -0.566,0.892c-0.97,1.297 -1.723,2.54 -2.264,3.728c-0.215,0.434 -0.377,0.783 -0.485,1.054m18.526,-21.565c-0.809,-0.16 -1.646,-0.322 -2.508,-0.487c-0.864,-0.159 -1.673,-0.352 -2.429,-0.567c-0.753,-0.215 -1.238,-0.377 -1.455,-0.486c0,-0.215 -0.162,-0.296 -0.486,-0.243c-0.323,0.056 -0.485,-0.026 -0.485,-0.241c-1.185,-0.542 -2.373,-1.543 -3.558,-3.001c-1.188,-1.459 -2.103,-2.675 -2.75,-3.648c0,0.215 -0.513,0.864 -1.54,1.945c-1.023,1.082 -1.751,1.837 -2.183,2.27l-0.324,0c-0.108,0 -0.214,0.053 -0.323,0.162c-0.647,0.433 -1.294,0.811 -1.941,1.135c-0.538,0.215 -1.105,0.433 -1.699,0.651c-0.594,0.215 -0.998,0.215 -1.213,0c-0.323,0.215 -0.675,0.458 -1.051,0.727c-0.379,0.271 -0.998,0.57 -1.86,0.894c-0.218,0 -0.46,0.028 -0.731,0.078c-0.268,0.056 -0.51,0.028 -0.728,-0.078c0,-0.109 0.056,-0.165 0.162,-0.165c0.109,0 0.218,-0.053 0.326,-0.159c0.862,0 1.966,-0.623 3.313,-1.864c1.35,-1.247 2.725,-2.678 4.128,-4.299c1.403,-1.624 2.669,-3.245 3.801,-4.866c1.132,-1.621 1.969,-2.756 2.51,-3.401c0.106,-0.221 0.187,-0.464 0.243,-0.732c0.052,-0.272 0.239,-0.406 0.566,-0.406c0.429,0 0.7,0.107 0.808,0.325c0.433,0.972 1.024,2.135 1.78,3.488c0.753,1.349 1.617,2.699 2.588,4.052c0.97,1.35 1.969,2.647 2.992,3.891c1.026,1.243 2.022,2.244 2.995,3.001l0,0.484c0.753,0.542 1.347,0.81 1.779,0.81c0,0.327 0.215,0.487 0.647,0.487c0.106,0.215 0.243,0.299 0.405,0.243c0.162,-0.051 0.242,0.028 0.242,0.243c-0.541,0 -1.213,-0.078 -2.021,-0.243m0.421,19.214c0,0.216 -0.028,0.409 -0.081,0.568c-0.056,0.162 -0.081,0.352 -0.081,0.567l-1.213,2.351c-0.809,1.57 -1.726,3.298 -2.753,5.19c-1.023,1.889 -1.966,3.647 -2.83,5.268c-0.862,1.624 -1.347,2.543 -1.456,2.759c-0.215,0.215 -0.324,0.402 -0.324,0.567c0,0.162 -0.108,0.349 -0.323,0.567l-1.132,1.297c-0.109,0 -0.243,0.134 -0.405,0.403c-0.162,0.271 -0.351,0.517 -0.566,0.732c-0.109,0.106 -0.404,0.377 -0.89,0.81c-0.485,0.431 -1.051,0.867 -1.698,1.297c-0.647,0.431 -1.35,0.839 -2.105,1.219c-0.753,0.374 -1.456,0.567 -2.103,0.567l-1.052,0c-0.376,0 -0.619,-0.056 -0.727,-0.165c-1.294,-0.324 -2.616,-1.053 -3.963,-2.188c-1.35,-1.135 -2.535,-2.488 -3.562,-4.053c-1.023,-1.568 -1.885,-3.326 -2.588,-5.271c-0.7,-1.945 -1.051,-3.999 -1.051,-6.16c0,-2.702 0.513,-5.243 1.537,-7.621c1.026,-2.379 2.292,-4.458 3.804,-6.241c1.508,-1.786 3.045,-3.217 4.609,-4.299c1.565,-1.081 2.94,-1.621 4.125,-1.621c0.324,0 0.538,0.053 0.65,0.162c0.862,-0.218 1.4,-0.324 1.617,-0.324c0.862,0 1.509,0.377 1.941,1.135c0.43,0.327 0.834,0.729 1.213,1.216c0.377,0.486 0.728,0.838 1.052,1.053l1.132,2.27c0.109,0.218 0.271,0.486 0.485,0.81c0.215,0.436 0.349,0.948 0.405,1.54c0.056,0.595 0.081,1.163 0.081,1.705c0,0.433 -0.109,0.973 -0.324,1.621c-0.106,0.324 -0.162,0.595 -0.162,0.811c-0.108,0.539 -0.189,0.972 -0.242,1.299c-0.053,0.322 -0.19,0.755 -0.405,1.294c-0.861,1.188 -2.077,2.082 -3.639,2.675c-1.565,0.595 -3.101,1.054 -4.613,1.381l-3.882,0.648c-0.538,0.539 -0.836,1.568 -0.889,3.08c-0.053,1.515 -0.081,2.756 -0.081,3.731c0,2.806 0.51,4.807 1.536,5.998c1.024,1.188 1.969,1.783 2.831,1.783c0.971,0 1.944,-0.271 2.914,-0.811c0.968,-0.542 1.562,-0.972 1.78,-1.296c0.214,-0.109 0.591,-0.487 1.132,-1.135c0.538,-0.651 1.104,-1.325 1.698,-2.029c0.591,-0.702 1.16,-1.403 1.699,-2.107c0.538,-0.702 0.97,-1.213 1.294,-1.54c0.214,-0.216 0.323,-0.487 0.323,-0.811c0,-0.324 0.109,-0.595 0.324,-0.81l0.647,-0.649l0.97,-1.459c0.324,-0.542 0.675,-1.162 1.052,-1.867c0.379,-0.701 0.674,-1.322 0.892,-1.864c0.215,-0.215 0.566,-0.727 1.051,-1.537c0.486,-0.811 0.834,-1.434 1.049,-1.864c0.217,-0.221 0.404,-0.461 0.569,-0.733c0.162,-0.271 0.295,-0.405 0.404,-0.405c0.215,0 0.324,0.162 0.324,0.486" style="fill:#fff;fill-rule:nonzero;"/><path d="M233.615,56.994l-9.061,5.998c-0.323,0.218 -0.647,0.327 -0.97,0.327c-0.324,0 -0.594,0.106 -0.812,0.322c-2.476,1.623 -5.148,3.27 -8.007,4.944c-2.858,1.677 -5.742,3.192 -8.653,4.541c-2.915,1.353 -5.745,2.516 -8.495,3.488c-2.753,0.97 -5.26,1.566 -7.524,1.781l-9.608,1.805c0.455,-6.604 0.963,-11.258 1.663,-15.827c0.7,-4.595 1.48,-9.433 2.345,-14.514c0.215,-0.866 0.323,-1.839 0.323,-2.921c0,-1.512 -0.242,-2.943 -0.727,-4.295c-0.486,-1.35 -1.428,-2.027 -2.831,-2.027c-0.324,-0.109 -0.541,-0.271 -0.65,-0.486c-0.106,-0.215 -0.268,-0.377 -0.482,-0.486c-1.08,-0.218 -1.888,-0.324 -2.429,-0.324c-2.156,0 -3.721,0.729 -4.691,2.188c-0.971,1.459 -1.456,3.432 -1.456,5.92c0,0.863 -0.053,2.294 -0.162,4.295c-0.106,2.001 -0.189,4.218 -0.242,6.649c-0.056,2.432 -0.134,4.972 -0.243,7.622c-0.109,2.647 -0.215,5.025 -0.323,7.132c-0.106,2.108 -0.19,3.866 -0.243,5.269c-0.031,0.807 -0.075,1.895 -0.106,2.649c-2.005,0.065 -3.929,0.109 -5.703,0.109c-0.215,0 -0.485,-0.053 -0.809,-0.162c-0.647,-0.215 -0.97,-0.38 -0.97,-0.486c-0.215,0 -0.458,0.271 -0.728,0.81c-0.271,0.543 -0.405,0.702 -0.405,0.487c-0.538,0.324 -0.808,0.539 -0.808,0.648c0,0.433 0.214,0.864 0.647,1.297c0.864,0.973 1.617,1.649 2.264,2.026c0.647,0.38 1.132,0.786 1.456,1.216c0.217,0.218 0.351,0.433 0.404,0.651c0.056,0.215 0.19,0.431 0.407,0.646c1.292,1.037 2.541,1.83 3.768,2.487c-0.125,2.183 -0.329,4.612 -0.468,5.945c-0.215,2.054 -0.43,4.324 -0.65,6.808c-0.215,2.488 -0.43,5.084 -0.644,7.787c-0.215,2.7 -0.324,5.349 -0.324,7.943c0,2.378 0.134,4.567 0.402,6.568c0.27,1.998 0.675,3.7 1.216,5.106c0.108,0.215 0.159,0.408 0.159,0.567c0,0.162 0.108,0.352 0.326,0.568c0.109,0.106 0.376,0.486 0.809,1.137c0.432,0.646 0.917,1.079 1.455,1.294l1.941,1.138c0.865,0.215 1.618,0.726 2.265,1.537c0.647,0.813 1.456,1.218 2.429,1.218c0.215,0 0.429,-0.164 0.644,-0.486c0,-0.109 0.299,-0.218 0.893,-0.324c0.594,-0.109 0.995,-0.271 1.21,-0.489c0.326,-0.646 0.837,-1.132 1.539,-1.456c0.7,-0.324 1.213,-0.867 1.537,-1.621c1.188,-1.406 2.211,-2.812 3.073,-4.218l2.588,-4.214c0.218,-0.325 0.432,-0.596 0.65,-0.811c0.215,-0.218 0.429,-0.489 0.647,-0.81c0.429,-0.649 0.781,-1.328 1.051,-2.03c0.271,-0.701 0.566,-1.431 0.89,-2.188l4.206,-6.484l0.161,-0.324c0.109,-0.218 0.246,-0.514 0.405,-0.895c0.161,-0.374 0.404,-0.891 0.728,-1.537l-0.645,-0.327l-0.326,0.162l-0.162,0.165c-1.508,2.376 -2.507,3.997 -2.992,4.863c-0.485,0.864 -0.999,1.512 -1.537,1.946c-0.65,0.757 -1.16,1.461 -1.536,2.107c-0.38,0.648 -0.781,1.244 -1.216,1.786c-0.753,0.861 -1.671,1.97 -2.75,3.32c-1.079,1.353 -2.239,2.678 -3.478,3.974c-1.238,1.297 -2.535,2.432 -3.884,3.405c-1.347,0.972 -2.669,1.458 -3.961,1.458c-1.188,0 -1.888,-0.511 -2.102,-1.539c-0.218,-1.026 -0.327,-1.918 -0.327,-2.675c0,-5.836 0.514,-11.484 1.537,-16.943c1.023,-5.458 1.916,-10.894 2.669,-16.297c0,-0.106 0.056,-0.486 0.164,-1.134c0.106,-0.649 0.215,-1.353 0.324,-2.108c0.045,-0.321 0.092,-0.615 0.137,-0.897c0.094,-0.031 0.192,-0.042 0.284,-0.075l9.546,-1.786c1.832,-0.324 4.286,-1.135 7.363,-2.432c3.07,-1.297 6.333,-2.943 9.785,-4.944c3.453,-1.998 6.878,-4.27 10.274,-6.811c3.4,-2.54 6.392,-5.271 8.98,-8.186c0.324,-0.542 0.594,-1.001 0.809,-1.381c0.215,-0.374 0.432,-0.673 0.647,-0.889l0.485,-0.489c0.324,-0.215 0.781,-0.539 1.375,-0.969c0.594,-0.436 0.893,-0.923 0.893,-1.462c0.323,-0.324 0.753,-0.646 1.291,-0.973c0.541,-0.324 0.97,-0.648 1.294,-0.972c0.326,-0.543 0.73,-1.054 1.216,-1.54l1.21,-1.219c0,-0.43 -0.215,-0.646 -0.644,-0.646" style="fill:#fff;fill-rule:nonzero;"/><path d="M96.296,103.886c0.198,0.139 0.396,0.307 0.591,0.503c0.282,0.112 0.536,0.251 0.904,0.363c0.254,0.056 0.507,0.112 0.733,0.168c0.762,0.167 1.381,0.223 1.888,0.223c0.876,0 1.582,-0.139 2.117,-0.475c0.563,-0.307 1.213,-0.671 1.975,-1.062l1.804,-0.726c0.987,-0.392 1.776,-0.923 2.368,-1.594c0.225,-0.254 0.432,-0.522 0.635,-0.791c1.233,0.051 1.557,0.255 2.817,1.054c0.212,0.19 0.404,0.386 0.572,0.593c0.666,0.827 0.881,1.825 -0.092,3.219c-0.042,0.255 -0.073,0.464 -0.089,0.618c-0.226,2.261 -0.383,4.533 -0.634,6.794c-0.053,0.411 -0.111,0.825 -0.172,1.241c-0.031,0.207 -0.065,0.417 -0.095,0.624c-1.183,2.607 -1.183,2.607 -0.879,5.718c-0.028,0.212 -0.053,0.425 -0.075,0.637c-0.167,1.487 -0.259,2.965 -0.201,4.413c0.062,1.677 0.095,3.888 1.06,5.431c0.106,0.173 0.226,0.335 0.36,0.489c1.361,1.006 1.667,1.129 1.91,1.185c2.22,-1.291 2.22,-1.291 1.447,-4.835c0.051,-0.252 0.104,-0.501 0.157,-0.741c0.206,-0.961 0.393,-1.772 0.476,-2.032c0.371,-1.193 0.578,-2.429 0.851,-3.636c0.039,-0.173 0.078,-0.344 0.12,-0.517c-0.831,-0.71 1.958,-3.505 1.643,-4.38c0.089,-0.179 0.175,-0.36 0.264,-0.539c0.628,-1.261 1.306,-2.499 1.919,-3.756c2.7,-5.473 6.682,-9.497 11.072,-13.36c0.164,-0.142 0.329,-0.285 0.499,-0.425c3.293,-0.609 3.293,-0.609 3.993,-3.426c0.062,-0.213 0.087,-0.383 0.079,-0.523c-0.017,-0.274 -0.171,-0.413 -0.427,-0.453c-0.126,-0.019 -0.279,-0.014 -0.452,0.014c-2.688,0.984 -2.688,0.984 -4.325,2.007c-0.126,0.073 -0.251,0.148 -0.374,0.221c-1.341,0.802 -2.396,1.498 -2.396,1.439c-2.872,2.376 -5.549,5.534 -7.92,8.357c-0.307,0.335 -3.96,2.795 -3.848,1.314c0.167,-2.234 2.024,-11.742 -1.531,-13.108c-0.237,-0.093 -0.497,-0.146 -0.784,-0.16c-0.633,0.151 -1.224,0.369 -1.793,0.615c-0.042,-0.1 -0.115,-0.176 -0.262,-0.176c-0.224,0 -0.394,0.084 -0.508,0.252c-0.198,0.223 -0.388,0.422 -0.583,0.634c-1.166,0.729 -2.091,1.643 -2.691,2.652c-0.555,0.481 -1.104,0.928 -1.631,1.297c-1.523,1.09 -2.851,1.845 -4.005,2.32c-1.13,0.503 -2.03,0.755 -2.708,0.838c-0.48,0.084 -0.706,0.112 -0.734,0.112c-0.055,-0.028 -0.281,-0.056 -0.733,-0.112c-0.167,-0.028 -0.31,-0.056 -0.452,-0.056l-0.019,0c-0.196,-0.586 -0.642,-1.341 -1.367,-2.235c-0.976,-1.174 -1.868,-1.761 -2.733,-1.761c-0.111,0.084 -0.279,0.14 -0.502,0.14c-0.223,0.111 -0.474,0.167 -0.809,0.167c-0.111,0 -0.362,-0.139 -0.808,-0.391c-0.419,-0.28 -0.976,-0.419 -1.618,-0.419c-0.864,0 -1.98,0.531 -3.402,1.537c-1.395,1.034 -2.733,2.543 -4.044,4.556c-1.283,1.984 -2.398,4.499 -3.319,7.518c-0.892,3.046 -1.366,6.54 -1.366,10.564c0,2.795 0.474,5.367 1.366,7.686c0.921,2.32 2.399,4.025 4.462,5.115c0.642,0.223 1.144,0.531 1.451,0.978c0.334,0.419 0.808,0.643 1.45,0.643c0.669,0 1.311,0.028 1.952,0.084c0.641,0.056 1.283,0.195 1.952,0.391c0.195,0 0.669,-0.587 1.367,-1.761c0.697,-1.202 1.45,-2.543 2.259,-4.08c0.808,-1.509 1.533,-3.047 2.175,-4.612c0.223,-0.531 0.446,-1.034 0.585,-1.481c0,-0.028 -0.027,-0.028 -0.027,-0.028c0.195,-0.503 0.39,-1.062 0.613,-1.649c0.028,-0.14 0.084,-0.307 0.14,-0.475c1.366,-4.388 2.342,-10.453 1.896,-16.266l-0.028,-0.028c-0.558,-0.475 -1.032,-0.727 -1.45,-0.839c-0.14,-0.028 -0.279,-0.056 -0.418,-0.056c-0.279,0 -0.53,0.084 -0.753,0.252c0.585,0.419 0.669,1.258 0.892,2.124c0.307,1.342 0.502,4.807 -1.506,12.801c0,0.083 0.028,0.167 0.056,0.223c0,0.531 -0.307,1.565 -0.948,3.075c-0.67,1.509 -1.395,3.046 -2.203,4.611c-0.809,1.565 -1.646,2.963 -2.51,4.136c-0.865,1.202 -1.506,1.789 -1.925,1.789c-0.557,0 -1.087,-0.307 -1.617,-0.894c-0.558,-0.587 -1.004,-1.314 -1.395,-2.18c-0.362,-0.867 -0.669,-1.789 -0.864,-2.767c-0.223,-0.978 -0.335,-1.873 -0.335,-2.739c0,-2.711 0.419,-5.422 1.283,-8.105c0.865,-2.711 1.924,-5.087 3.151,-7.155c1.255,-2.04 2.538,-3.717 3.905,-5.031c1.199,-1.146 2.259,-1.789 3.151,-1.9" style="fill:#fff;fill-rule:nonzero;"/><rect x="0" y="0" width="239" height="218" style="fill:none;"/></g></g></svg>